<svg xmlns="http://www.w3.org/2000/svg" viewBox="0 0 400 300" fill="none">
  <circle cx="200" cy="150" r="118" fill="#EAF0FE"/>
  <rect x="132" y="84" width="136" height="132" rx="18" fill="#FFFFFF"/>
  <rect x="170" y="74" width="60" height="26" rx="10" fill="#2342C9"/>
  <g>
    <circle cx="158" cy="128" r="11" fill="#2F5BEA"/>
    <path d="M153 128l4 4 7-8" stroke="#FFFFFF" stroke-width="3" stroke-linecap="round" stroke-linejoin="round" fill="none"/>
    <rect x="178" y="122" width="66" height="10" rx="5" fill="#C9D8FB"/>
    <circle cx="158" cy="160" r="11" fill="#2F5BEA"/>
    <path d="M153 160l4 4 7-8" stroke="#FFFFFF" stroke-width="3" stroke-linecap="round" stroke-linejoin="round" fill="none"/>
    <rect x="178" y="154" width="66" height="10" rx="5" fill="#C9D8FB"/>
  </g>
  <path d="M214 178l9 18 20 3-14 14 3 20-18-9-18 9 3-20-14-14 20-3Z" fill="#F5A623"/>
</svg>
